<svg width="640" height="420" viewBox="0 0 640 420" xmlns="http://www.w3.org/2000/svg" role="img" aria-label="Training session with instructors and participants">
  <rect width="640" height="420" rx="20" fill="#edf3ff"/>
  <rect x="70" y="72" width="500" height="276" rx="16" fill="#ffffff" stroke="#c9d8f2"/>
  <rect x="96" y="100" width="300" height="160" rx="10" fill="#0a1f47"/>
  <rect x="112" y="118" width="268" height="14" rx="7" fill="#3b82f6"/>
  <rect x="112" y="144" width="224" height="12" rx="6" fill="#6ea0f1"/>
  <rect x="112" y="166" width="194" height="12" rx="6" fill="#6ea0f1"/>
  <rect x="112" y="188" width="240" height="12" rx="6" fill="#6ea0f1"/>
  <circle cx="448" cy="146" r="22" fill="#1f5cbf"/>
  <rect x="424" y="170" width="48" height="76" rx="9" fill="#173a75"/>
  <circle cx="212" cy="294" r="16" fill="#3b82f6"/>
  <rect x="194" y="312" width="36" height="26" rx="7" fill="#1f5cbf"/>
  <circle cx="286" cy="294" r="16" fill="#0a1f47"/>
  <rect x="268" y="312" width="36" height="26" rx="7" fill="#173a75"/>
  <circle cx="360" cy="294" r="16" fill="#0056d6"/>
  <rect x="342" y="312" width="36" height="26" rx="7" fill="#3b82f6"/>
</svg>
